<?xml version="1.0" standalone="no"?>
<!DOCTYPE svg PUBLIC "-//W3C//DTD SVG 20010904//EN"
 "http://www.w3.org/TR/2001/REC-SVG-20010904/DTD/svg10.dtd">
<svg version="1.0" xmlns="http://www.w3.org/2000/svg"
 width="200.000000pt" height="200.000000pt" viewBox="0 0 200.000000 200.000000"
 preserveAspectRatio="xMidYMid meet">

<g transform="translate(0.000000,200.000000) scale(0.100000,-0.100000)"
fill="#000000" stroke="none">
<path d="M0 1000 l0 -1000 1000 0 1000 0 0 1000 0 1000 -1000 0 -1000 0 0
-1000z m1330 726 c109 -18 173 -32 249 -53 l53 -15 -4 -342 c-5 -326 -6 -345
-31 -437 -70 -264 -225 -442 -502 -576 l-95 -46 -95 46 c-323 156 -487 379
-525 712 -5 50 -10 215 -10 367 l0 277 53 15 c93 26 225 50 397 70 75 9 419
-4 510 -18z"/>
<path d="M800 1700 c-107 -11 -191 -26 -302 -51 l-87 -20 -1 -227 c-1 -270 12
-439 41 -542 59 -215 219 -394 456 -514 40 -20 82 -36 93 -36 11 0 53 16 93
36 238 120 397 300 456 515 30 108 40 240 41 520 l0 247 -87 21 c-200 49 -510
71 -703 51z m220 -101 c0 -10 9 -21 21 -24 27 -9 19 -29 -14 -33 -30 -4 -31
-6 -17 -33 13 -23 33 -25 50 -4 11 14 14 13 27 -5 15 -21 48 -27 58 -11 3 5
-3 12 -14 16 -26 8 -36 35 -13 36 9 1 21 1 26 0 5 -1 15 7 23 19 12 17 53 29
53 15 0 -2 -13 -24 -29 -47 -57 -85 -66 -103 -66 -133 0 -29 -2 -30 -63 -39
-38 -5 -91 -5 -130 0 -66 9 -67 10 -67 39 0 30 -9 48 -67 134 -16 24 -27 45
-24 48 10 11 56 -8 56 -23 0 -9 8 -14 18 -13 38 3 43 0 32 -21 -6 -11 -18 -20
-26 -20 -8 0 -12 -4 -9 -10 11 -19 53 -11 60 11 7 20 8 20 26 3 15 -14 24 -16
37 -8 29 18 26 42 -4 46 -34 4 -43 24 -15 33 12 3 21 14 21 24 0 9 5 22 12 29
15 15 38 -3 38 -29z m-252 -202 c12 -11 22 -26 22 -32 0 -12 192 -155 208
-155 19 0 179 123 225 173 28 31 50 47 53 40 3 -7 13 -9 22 -6 15 6 15 5 3
-10 -11 -14 -11 -17 0 -17 22 -1 -29 -38 -65 -49 -18 -4 -76 -41 -129 -80 -53
-39 -102 -71 -108 -71 -6 0 -57 34 -114 75 -56 41 -110 75 -119 75 -14 0 -50
18 -76 38 -2 1 2 7 10 12 10 7 11 10 3 10 -7 0 -13 5 -13 11 0 6 7 9 15 5 8
-3 15 -1 15 5 0 12 16 4 48 -24z m-41 -98 c3 -10 23 -30 45 -45 22 -16 35 -30
29 -32 -6 -2 -26 8 -45 23 -19 15 -39 24 -44 21 -4 -3 -26 5 -47 18 -26 16
-34 26 -25 31 9 6 9 9 -1 16 -11 7 -10 9 4 9 9 0 17 5 17 11 0 16 62 -32 67
-52z m608 41 c-4 -6 1 -7 11 -3 13 5 16 3 11 -10 -3 -8 -1 -17 5 -19 15 -5
-54 -48 -76 -48 -10 0 -33 -12 -52 -26 -19 -15 -38 -24 -42 -20 -4 4 2 12 13
18 11 6 30 23 43 37 50 55 77 81 85 81 5 0 5 -4 2 -10z m-666 -129 c56 -65 65
-84 25 -52 -15 12 -34 21 -43 21 -22 0 -89 42 -74 47 7 2 9 11 6 19 -4 10 0
12 13 7 12 -4 15 -3 10 5 -4 7 -3 12 2 12 6 0 33 -26 61 -59z m742 44 c9 6 11
4 6 -8 -3 -9 -1 -17 5 -19 15 -5 -54 -48 -77 -48 -10 0 -27 -7 -37 -17 -29
-26 -32 -8 -3 23 66 71 79 83 86 72 4 -6 12 -7 20 -3z m-437 -71 c13 -12 16
-41 16 -150 0 -130 -1 -134 -19 -124 -11 5 -60 10 -110 10 l-91 0 0 140 0 140
94 0 c73 0 98 -4 110 -16z m246 -124 l0 -140 -86 0 c-47 0 -94 -5 -105 -10
-18 -10 -19 -6 -19 128 0 94 4 142 12 150 8 8 46 12 105 12 l93 0 0 -140z
m-525 -7 c16 -12 27 -24 24 -27 -3 -3 -30 12 -59 33 -30 22 -58 37 -62 35 -5
-3 -27 6 -50 20 -24 14 -37 26 -30 26 9 0 11 7 6 22 -6 20 -5 21 10 9 14 -12
16 -11 16 5 0 14 16 2 58 -41 31 -34 70 -70 87 -82z m773 121 c7 4 10 -4 8
-19 -3 -26 -59 -71 -75 -60 -5 2 -34 -14 -65 -36 -31 -22 -56 -36 -56 -30 0 5
23 25 50 45 28 20 50 41 50 46 0 17 64 69 71 58 4 -6 11 -8 17 -4z m-708 -144
l0 -140 95 0 c82 0 98 -3 115 -20 11 -11 25 -20 30 -20 6 0 18 9 27 20 15 17
30 20 115 20 l98 0 0 142 c0 78 3 138 7 135 7 -8 12 -264 5 -284 -3 -9 -33
-13 -102 -13 -74 0 -100 -4 -110 -15 -7 -8 -25 -15 -40 -15 -15 0 -33 7 -40
15 -10 12 -36 15 -116 15 l-104 0 0 150 c0 93 4 150 10 150 6 0 10 -53 10
-140z m-40 -39 c0 -4 -18 -21 -40 -36 -22 -15 -40 -33 -40 -40 0 -12 -78 -50
-86 -42 -9 8 51 77 63 73 8 -3 32 8 55 24 45 33 48 34 48 21z m659 -46 c9 5
74 -65 67 -72 -1 -2 -23 4 -49 13 -29 10 -44 20 -41 28 3 7 -13 25 -36 40 -22
14 -40 31 -40 37 0 5 20 -4 45 -21 25 -17 49 -29 54 -25z m-674 -101 c-13 -27
-79 -64 -91 -51 -9 9 52 72 68 69 9 -2 19 2 23 8 14 23 15 2 0 -26z m657 -15
c16 -19 24 -35 19 -37 -18 -6 -81 27 -81 42 0 9 -4 16 -10 16 -5 0 -10 4 -10
9 0 22 56 2 82 -30z m-492 17 c0 -2 -27 -22 -60 -45 -33 -23 -58 -47 -54 -52
6 -10 -62 -42 -78 -37 -6 2 2 18 17 36 15 18 33 31 39 29 6 -2 34 13 61 34 43
33 75 48 75 35z m331 -34 c30 -20 60 -37 68 -37 7 0 25 -15 39 -32 20 -28 22
-33 8 -33 -25 0 -76 29 -76 43 0 6 -23 28 -51 47 -28 18 -53 38 -55 42 -11 18
16 6 67 -30z m-211 1 c0 -5 -41 -37 -91 -72 -49 -36 -88 -70 -85 -76 2 -6 -16
-19 -40 -28 -24 -9 -44 -12 -44 -7 0 16 51 69 63 65 7 -2 50 24 97 60 84 63
100 72 100 58z m129 -66 c41 -30 80 -53 87 -50 10 4 64 -54 64 -70 0 -3 -21 1
-46 10 -28 9 -43 20 -40 28 2 7 -34 39 -85 76 -49 35 -89 67 -89 71 0 12 23
-2 109 -65z m-109 -65 c0 -13 -12 -22 -22 -16 -10 6 -1 24 13 24 5 0 9 -4 9
-8z m-20 -39 c10 -17 10 -17 20 0 13 21 38 22 65 2 16 -13 18 -19 8 -45 -10
-26 -9 -29 11 -32 16 -2 21 -9 19 -32 -3 -42 -25 -61 -53 -46 -19 10 -21 9
-20 -7 4 -38 0 -43 -40 -43 -38 0 -40 2 -40 30 0 28 -2 30 -21 19 -27 -14 -49
5 -52 47 -2 23 2 30 20 32 19 3 21 6 11 28 -9 19 -8 28 7 44 22 25 51 26 65 3z
m-95 -61 c-2 -3 -12 -1 -22 2 -15 6 -15 9 -3 16 13 8 35 -8 25 -18z m235 7 c0
-5 -7 -9 -15 -9 -15 0 -20 12 -9 23 8 8 24 -1 24 -14z m-190 -134 c0 -8 -7
-15 -15 -15 -16 0 -20 12 -8 23 11 12 23 8 23 -8z m148 -3 c2 -7 -3 -12 -12
-12 -9 0 -16 7 -16 16 0 17 22 14 28 -4z"/>
<path d="M982 1467 c-10 -11 -9 -17 3 -27 24 -20 45 4 24 26 -14 13 -17 13
-27 1z"/>
<path d="M904 1449 c-10 -17 13 -36 27 -22 12 12 4 33 -11 33 -5 0 -12 -5 -16
-11z"/>
<path d="M1054 1449 c-10 -17 13 -36 27 -22 12 12 4 33 -11 33 -5 0 -12 -5
-16 -11z"/>
<path d="M895 1380 c3 -6 48 -10 100 -10 52 0 97 4 100 10 4 6 -32 10 -100 10
-68 0 -104 -4 -100 -10z"/>
<path d="M790 1055 c0 -30 33 -35 50 -7 11 16 11 16 6 0 -3 -10 -1 -18 4 -18
19 0 10 38 -9 43 -15 3 -21 -1 -24 -17 -4 -20 -4 -20 -6 2 -2 30 -21 28 -21
-3z"/>
<path d="M873 1050 c1 -11 10 -17 28 -17 18 0 25 5 22 14 -3 7 -1 13 5 13 5 0
12 -7 16 -15 3 -8 10 -15 16 -15 6 0 8 5 5 10 -3 6 -1 10 5 10 6 0 9 4 6 9 -8
12 -58 11 -75 -3 -10 -7 -13 -7 -8 0 3 6 0 11 -8 11 -7 0 -13 -8 -12 -17z"/>
<path d="M1030 1056 c0 -22 3 -23 66 -23 40 0 60 3 52 8 -11 7 -10 11 2 19 12
8 9 9 -12 8 -17 -2 -28 -8 -29 -18 0 -10 -3 -9 -9 5 -5 11 -9 16 -9 11 -1 -5
-8 -3 -16 4 -13 11 -14 10 -10 -3 4 -8 2 -18 -4 -22 -7 -3 -11 2 -11 14 0 12
-4 21 -10 21 -5 0 -10 -11 -10 -24z"/>
<path d="M1171 1053 c-1 -16 5 -23 17 -23 10 0 13 3 6 8 -6 4 -14 14 -17 22
-4 10 -6 8 -6 -7z"/>
<path d="M954 564 c-8 -23 -8 -34 -1 -34 6 0 19 -7 29 -17 17 -15 19 -15 36 0
10 10 23 17 29 17 7 0 7 11 -1 34 -9 30 -14 33 -46 33 -32 0 -37 -3 -46 -33z
m61 -3 c7 -12 -12 -24 -25 -16 -11 7 -4 25 10 25 5 0 11 -4 15 -9z"/>
</g>
</svg>
