<svg width="56" height="56" xmlns="http://www.w3.org/2000/svg">
 <!-- Created with Method Draw - http://github.com/duopixel/Method-Draw/ -->
 <g>
  <title>background</title>
  <rect fill="#fff" id="canvas_background" height="58" width="58" y="-1" x="-1"/>
  <g display="none" overflow="visible" y="0" x="0" height="100%" width="100%" id="canvasGrid">
   <rect fill="url(#gridpattern)" stroke-width="0" y="0" x="0" height="100%" width="100%"/>
  </g>
 </g>
 <g>
  <title>Layer 1</title>
  <path xmlns="http://www.w3.org/2000/svg" fill="#231f20" fill-rule="nonzero" id="path22" d="m0,0l0,88.11877l108.99686,-0.0004c-0.84039,-0.59499 -1.6226,-1.22558 -2.32097,-1.89326c-6.2251,-6.01905 -6.3119,-13.01046 -6.48945,-19.56145l0,-37.17539l19.91419,0l0,39.03551c0,2.65634 0.09074,5.39958 2.31208,7.52249c1.59894,1.68327 4.0008,2.30125 6.31092,2.30125c3.11203,0 5.1588,-1.15221 6.31485,-2.21129c2.30913,-2.21287 2.3979,-4.95611 2.3979,-7.61245l0,-39.03551l20.00298,0l0,33.28152c0,7.16738 0,16.4632 -7.37819,23.45532c-0.70526,0.66058 -1.48352,1.29118 -2.32294,1.89326l29.82144,0c-8.77885,-6.29848 -12.90393,-16.82304 -12.90393,-27.03186c0,-16.81712 11.29219,-33.90106 32.53796,-33.90106c9.51274,0 18.57964,3.36525 25.15981,10.0938c2.66818,2.74275 3.91301,4.86644 5.24463,7.34336l-16.62262,8.23457c-1.60286,-3.72016 -4.62418,-10.35767 -12.98186,-10.35767c-4.35588,0 -7.11185,2.0365 -8.44543,3.36437c-4.71201,4.51233 -4.71201,11.59391 -4.71201,14.07586c0,9.29109 3.47012,18.05583 13.24818,18.05583c9.2464,0 12.0024,-8.1452 12.71358,-10.2681l16.88992,8.14282c-1.60092,3.00909 -3.11108,5.8415 -6.13139,8.84988c-1.29808,1.27058 -2.70273,2.39911 -4.18623,3.3982l18.26399,0l0,-58.71937l19.82245,0l0,46.15082l25.72501,0l0,12.56855l18.81827,-0.00961l0,-88.10876l-299.99999,0"/>
  <text transform="matrix(1,0,0,1,0,0) " style="cursor: text;" font-style="normal" font-weight="normal" xml:space="preserve" text-anchor="start" font-family="'Montserrat Black'" font-size="30" id="svg_1" y="38.75" x="16.57031" stroke-width="0" stroke="#000" fill="#000000">X</text>
 </g>
</svg>
