<?xml version="1.0" standalone="no"?>
<!DOCTYPE svg PUBLIC "-//W3C//DTD SVG 20010904//EN"
 "http://www.w3.org/TR/2001/REC-SVG-20010904/DTD/svg10.dtd">
<svg version="1.0" xmlns="http://www.w3.org/2000/svg"
width="200.000000pt" height="200.000000pt" viewBox="0 0 200.000000 200.000000"
preserveAspectRatio="xMidYMid meet">

<g transform="translate(0.000000,200.000000) scale(0.100000,-0.100000)"
fill="#000000" stroke="none">
<path d="M0 1500 l0 -500 321 0 321 0 -21 34 c-19 30 -21 49 -21 185 l0 151
60 0 60 0 0 -135 c0 -124 2 -137 21 -156 22 -22 66 -20 81 4 4 7 8 74 8 150
l0 137 66 0 65 0 -3 -152 c-3 -141 -5 -156 -26 -186 l-23 -32 85 0 86 0 -32
45 c-27 38 -33 57 -36 113 -3 58 0 74 25 122 23 44 39 60 83 83 47 25 63 28
112 24 64 -6 126 -36 157 -78 l20 -27 -32 -19 c-59 -35 -67 -35 -97 -3 -33 35
-76 40 -111 11 -19 -15 -24 -30 -27 -82 -3 -54 -1 -68 18 -91 31 -40 89 -39
122 0 l24 29 52 -23 c29 -13 52 -25 52 -28 0 -3 -14 -21 -31 -41 l-31 -35 56
0 56 0 0 185 c0 209 -10 188 85 188 l40 0 3 -147 3 -146 79 0 80 0 0 -40 0
-40 125 0 125 0 0 500 0 500 -1000 0 -1000 0 0 -500z m483 -180 c1 -12 8 -20
19 -20 10 0 18 -7 18 -15 0 -9 -6 -12 -15 -9 -11 4 -15 0 -15 -16 0 -17 3 -20
13 -12 10 8 13 5 15 -14 2 -23 0 -24 -62 -24 l-64 0 3 43 c2 29 8 43 19 45 9
2 16 10 16 18 0 8 5 23 12 33 10 16 14 17 25 5 8 -8 15 -23 16 -34z"/>
<path d="M412 1260 c0 -14 2 -19 5 -12 2 6 2 18 0 25 -3 6 -5 1 -5 -13z"/>
<path d="M432 1260 c0 -14 2 -19 5 -12 2 6 2 18 0 25 -3 6 -5 1 -5 -13z"/>
<path d="M452 1260 c0 -14 2 -19 5 -12 2 6 2 18 0 25 -3 6 -5 1 -5 -13z"/>
<path d="M472 1260 c0 -14 2 -19 5 -12 2 6 2 18 0 25 -3 6 -5 1 -5 -13z"/>
</g>
</svg>
