<svg width="56" height="56" xmlns="http://www.w3.org/2000/svg">
 <!-- Created with Method Draw - http://github.com/duopixel/Method-Draw/ -->
 <g>
  <title>background</title>
  <rect fill="#fff" id="canvas_background" height="58" width="58" y="-1" x="-1"/>
  <g display="none" overflow="visible" y="0" x="0" height="100%" width="100%" id="canvasGrid">
   <rect fill="url(#gridpattern)" stroke-width="0" y="0" x="0" height="100%" width="100%"/>
  </g>
 </g>
 <g>
  <title>Layer 1</title>
    <path d="M576 64H64C28.7 64 0 92.7 0 128V384c0 35.3 28.7 64 64 64H184.4c24.2 0 46.4-13.7 57.2-35.4l32-64c8.8-17.5 26.7-28.6 46.3-28.6s37.5 11.1 46.3 28.6l32 64c10.8 21.7 33 35.4 57.2 35.4H576c35.3 0 64-28.7 64-64V128c0-35.3-28.7-64-64-64zM96 240a64 64 0 1 1 128 0A64 64 0 1 1 96 240zm384-64a64 64 0 1 1 0 128 64 64 0 1 1 0-128z"/>
  <text transform="matrix(1,0,0,1,0,0) " style="cursor: text;" font-style="normal" font-weight="normal" xml:space="preserve" text-anchor="start" font-family="'Montserrat Black'" font-size="30" id="svg_1" y="38.75" x="16.57031" stroke-width="0" stroke="#000" fill="#000000">X</text>
 </g>
</svg>
